<mxfile host="65bd71144e">
    <diagram id="5ue1vJYQjAj9YsLtHT0t" name="Page-1">
        <mxGraphModel dx="834" dy="567" grid="1" gridSize="10" guides="1" tooltips="1" connect="1" arrows="1" fold="1" page="1" pageScale="1" pageWidth="1169" pageHeight="827" math="0" shadow="0">
            <root>
                <mxCell id="0"/>
                <mxCell id="1" parent="0"/>
                <mxCell id="71" style="edgeStyle=orthogonalEdgeStyle;html=1;exitX=0.5;exitY=1;exitDx=0;exitDy=0;entryX=0.5;entryY=0;entryDx=0;entryDy=0;fontFamily=Courier New;fontSize=6;" parent="1" source="2" target="69" edge="1">
                    <mxGeometry relative="1" as="geometry"/>
                </mxCell>
                <mxCell id="2" value="&lt;font face=&quot;Tahoma&quot;&gt;INPUT_2_a&lt;/font&gt;" style="rounded=1;whiteSpace=wrap;html=1;" parent="1" vertex="1">
                    <mxGeometry x="620" y="10" width="120" height="60" as="geometry"/>
                </mxCell>
                <mxCell id="73" style="edgeStyle=orthogonalEdgeStyle;html=1;exitX=0.5;exitY=1;exitDx=0;exitDy=0;entryX=0.5;entryY=0;entryDx=0;entryDy=0;fontFamily=Courier New;fontSize=6;" parent="1" source="3" target="70" edge="1">
                    <mxGeometry relative="1" as="geometry"/>
                </mxCell>
                <mxCell id="3" value="&lt;font style=&quot;font-size: 12px;&quot; face=&quot;Tahoma&quot;&gt;&lt;font style=&quot;&quot;&gt;INPUT_1_a&lt;/font&gt;&lt;br&gt;&lt;/font&gt;" style="rounded=1;whiteSpace=wrap;html=1;" parent="1" vertex="1">
                    <mxGeometry x="420" y="10" width="120" height="60" as="geometry"/>
                </mxCell>
                <mxCell id="67" style="edgeStyle=orthogonalEdgeStyle;html=1;exitX=1;exitY=0.5;exitDx=0;exitDy=0;entryX=0.5;entryY=0;entryDx=0;entryDy=0;fontFamily=Courier New;fontSize=6;" parent="1" source="9" target="65" edge="1">
                    <mxGeometry relative="1" as="geometry"/>
                </mxCell>
                <mxCell id="80" style="edgeStyle=orthogonalEdgeStyle;html=1;exitX=0;exitY=0.5;exitDx=0;exitDy=0;entryX=1;entryY=0.5;entryDx=0;entryDy=0;fontFamily=Courier New;fontSize=12;" parent="1" source="9" target="79" edge="1">
                    <mxGeometry relative="1" as="geometry"/>
                </mxCell>
                <mxCell id="81" style="edgeStyle=orthogonalEdgeStyle;html=1;exitX=0;exitY=0.5;exitDx=0;exitDy=0;entryX=1;entryY=0.5;entryDx=0;entryDy=0;fontFamily=Courier New;fontSize=12;" parent="1" source="9" target="78" edge="1">
                    <mxGeometry relative="1" as="geometry">
                        <Array as="points">
                            <mxPoint x="430" y="200"/>
                            <mxPoint x="430" y="290"/>
                        </Array>
                    </mxGeometry>
                </mxCell>
                <mxCell id="9" value="INTERMEDIATE_1_a" style="rounded=0;whiteSpace=wrap;html=1;" parent="1" vertex="1">
                    <mxGeometry x="520" y="170" width="120" height="60" as="geometry"/>
                </mxCell>
                <mxCell id="16" value="&lt;font face=&quot;Tahoma&quot; style=&quot;font-size: 8px;&quot;&gt;LOCKED_3_a&lt;br&gt;&lt;/font&gt;" style="shape=datastore;whiteSpace=wrap;html=1;" parent="1" vertex="1">
                    <mxGeometry x="460" y="610" width="60" height="60" as="geometry"/>
                </mxCell>
                <mxCell id="17" value="&lt;font face=&quot;Tahoma&quot; style=&quot;font-size: 8px;&quot;&gt;LOCKED_1_b&lt;br&gt;&lt;/font&gt;" style="shape=datastore;whiteSpace=wrap;html=1;" parent="1" vertex="1">
                    <mxGeometry x="200" y="170" width="60" height="60" as="geometry"/>
                </mxCell>
                <mxCell id="18" value="&lt;font style=&quot;font-size: 8px;&quot; face=&quot;Tahoma&quot;&gt;LOCKED_1_c&lt;br&gt;&lt;/font&gt;" style="shape=datastore;whiteSpace=wrap;html=1;" parent="1" vertex="1">
                    <mxGeometry x="200" y="260" width="60" height="60" as="geometry"/>
                </mxCell>
                <mxCell id="38" style="edgeStyle=orthogonalEdgeStyle;html=1;exitX=0.5;exitY=0;exitDx=0;exitDy=0;entryX=0;entryY=0.5;entryDx=0;entryDy=0;fontFamily=Courier New;fontSize=6;" parent="1" source="34" target="9" edge="1">
                    <mxGeometry relative="1" as="geometry"/>
                </mxCell>
                <mxCell id="34" value="&lt;span style=&quot;color: rgb(240, 240, 240); font-family: &amp;quot;Courier New&amp;quot;; font-size: 12px; font-style: normal; font-variant-ligatures: normal; font-variant-caps: normal; font-weight: 400; letter-spacing: normal; orphans: 2; text-align: center; text-indent: 0px; text-transform: none; widows: 2; word-spacing: 0px; -webkit-text-stroke-width: 0px; background-color: rgb(42, 37, 47); text-decoration-thickness: initial; text-decoration-style: initial; text-decoration-color: initial; float: none; display: inline !important;&quot;&gt;send[4]&lt;/span&gt;" style="rhombus;whiteSpace=wrap;html=1;fontFamily=Courier New;fontSize=8;align=center;" parent="1" vertex="1">
                    <mxGeometry x="450" y="250" width="80" height="80" as="geometry"/>
                </mxCell>
                <mxCell id="47" style="edgeStyle=orthogonalEdgeStyle;html=1;exitX=0.5;exitY=1;exitDx=0;exitDy=0;entryX=0.5;entryY=0;entryDx=0;entryDy=0;fontFamily=Courier New;fontSize=6;" parent="1" source="43" edge="1">
                    <mxGeometry relative="1" as="geometry">
                        <mxPoint x="490" y="520" as="targetPoint"/>
                    </mxGeometry>
                </mxCell>
                <mxCell id="43" value="&lt;span style=&quot;color: rgb(240, 240, 240); font-family: &amp;quot;Courier New&amp;quot;; font-size: 12px; font-style: normal; font-variant-ligatures: normal; font-variant-caps: normal; font-weight: 400; letter-spacing: normal; orphans: 2; text-align: center; text-indent: 0px; text-transform: none; widows: 2; word-spacing: 0px; -webkit-text-stroke-width: 0px; background-color: rgb(42, 37, 47); text-decoration-thickness: initial; text-decoration-style: initial; text-decoration-color: initial; float: none; display: inline !important;&quot;&gt;send[8]&lt;/span&gt;" style="rhombus;whiteSpace=wrap;html=1;fontFamily=Courier New;fontSize=8;align=center;" parent="1" vertex="1">
                    <mxGeometry x="450" y="414" width="80" height="80" as="geometry"/>
                </mxCell>
                <mxCell id="61" style="edgeStyle=orthogonalEdgeStyle;html=1;exitX=0.5;exitY=1;exitDx=0;exitDy=0;entryX=0.5;entryY=0;entryDx=0;entryDy=0;fontFamily=Courier New;fontSize=6;" parent="1" source="44" target="60" edge="1">
                    <mxGeometry relative="1" as="geometry"/>
                </mxCell>
                <mxCell id="44" value="&lt;span style=&quot;color: rgb(240, 240, 240); font-family: &amp;quot;Courier New&amp;quot;; font-size: 12px; font-style: normal; font-variant-ligatures: normal; font-variant-caps: normal; font-weight: 400; letter-spacing: normal; orphans: 2; text-align: center; text-indent: 0px; text-transform: none; widows: 2; word-spacing: 0px; -webkit-text-stroke-width: 0px; background-color: rgb(42, 37, 47); text-decoration-thickness: initial; text-decoration-style: initial; text-decoration-color: initial; float: none; display: inline !important;&quot;&gt;send[9]&lt;/span&gt;" style="rhombus;whiteSpace=wrap;html=1;fontFamily=Courier New;fontSize=8;align=center;" parent="1" vertex="1">
                    <mxGeometry x="640" y="414" width="80" height="80" as="geometry"/>
                </mxCell>
                <mxCell id="49" value="&lt;font face=&quot;Helvetica&quot;&gt;&lt;span style=&quot;font-size: 12px;&quot;&gt;LOCKED_2_c&lt;/span&gt;&lt;/font&gt;" style="shape=datastore;whiteSpace=wrap;html=1;fontFamily=Courier New;fontSize=6;" parent="1" vertex="1">
                    <mxGeometry x="450" y="520" width="80" height="60" as="geometry"/>
                </mxCell>
                <mxCell id="52" style="edgeStyle=orthogonalEdgeStyle;html=1;exitX=0;exitY=0.25;exitDx=0;exitDy=0;entryX=0.5;entryY=1;entryDx=0;entryDy=0;fontFamily=Courier New;fontSize=6;" parent="1" source="50" target="34" edge="1">
                    <mxGeometry relative="1" as="geometry"/>
                </mxCell>
                <mxCell id="53" style="edgeStyle=orthogonalEdgeStyle;html=1;exitX=1;exitY=0.75;exitDx=0;exitDy=0;entryX=0.5;entryY=0;entryDx=0;entryDy=0;fontFamily=Courier New;fontSize=6;" parent="1" source="50" target="44" edge="1">
                    <mxGeometry relative="1" as="geometry"/>
                </mxCell>
                <mxCell id="54" style="edgeStyle=orthogonalEdgeStyle;html=1;exitX=0;exitY=0.75;exitDx=0;exitDy=0;entryX=0.5;entryY=0;entryDx=0;entryDy=0;fontFamily=Courier New;fontSize=6;" parent="1" source="50" target="43" edge="1">
                    <mxGeometry relative="1" as="geometry"/>
                </mxCell>
                <mxCell id="59" style="edgeStyle=orthogonalEdgeStyle;html=1;exitX=0;exitY=0.75;exitDx=0;exitDy=0;entryX=0.5;entryY=0;entryDx=0;entryDy=0;fontFamily=Courier New;fontSize=6;" parent="1" source="50" target="56" edge="1">
                    <mxGeometry relative="1" as="geometry"/>
                </mxCell>
                <mxCell id="50" value="&lt;font face=&quot;Helvetica&quot;&gt;&lt;span style=&quot;font-size: 12px;&quot;&gt;INTERMEDIATE_2_a&lt;/span&gt;&lt;/font&gt;" style="rounded=0;whiteSpace=wrap;html=1;fontFamily=Courier New;fontSize=6;" parent="1" vertex="1">
                    <mxGeometry x="520" y="350" width="120" height="60" as="geometry"/>
                </mxCell>
                <mxCell id="55" style="edgeStyle=orthogonalEdgeStyle;html=1;exitX=0.5;exitY=1;exitDx=0;exitDy=0;entryX=0.5;entryY=0;entryDx=0;entryDy=0;fontFamily=Courier New;fontSize=6;" parent="1" source="56" edge="1">
                    <mxGeometry relative="1" as="geometry">
                        <mxPoint x="350" y="520" as="targetPoint"/>
                    </mxGeometry>
                </mxCell>
                <mxCell id="56" value="&lt;span style=&quot;color: rgb(240, 240, 240); font-family: &amp;quot;Courier New&amp;quot;; font-size: 12px; font-style: normal; font-variant-ligatures: normal; font-variant-caps: normal; font-weight: 400; letter-spacing: normal; orphans: 2; text-align: center; text-indent: 0px; text-transform: none; widows: 2; word-spacing: 0px; -webkit-text-stroke-width: 0px; background-color: rgb(42, 37, 47); text-decoration-thickness: initial; text-decoration-style: initial; text-decoration-color: initial; float: none; display: inline !important;&quot;&gt;send[7]&lt;/span&gt;" style="rhombus;whiteSpace=wrap;html=1;fontFamily=Courier New;fontSize=8;align=center;" parent="1" vertex="1">
                    <mxGeometry x="310" y="414" width="80" height="80" as="geometry"/>
                </mxCell>
                <mxCell id="57" value="&lt;font face=&quot;Helvetica&quot;&gt;&lt;span style=&quot;font-size: 12px;&quot;&gt;LOCKED_2_b&lt;/span&gt;&lt;/font&gt;" style="shape=datastore;whiteSpace=wrap;html=1;fontFamily=Courier New;fontSize=6;" parent="1" vertex="1">
                    <mxGeometry x="310" y="520" width="80" height="60" as="geometry"/>
                </mxCell>
                <mxCell id="63" style="edgeStyle=orthogonalEdgeStyle;html=1;exitX=1;exitY=0.5;exitDx=0;exitDy=0;entryX=0.5;entryY=1;entryDx=0;entryDy=0;fontFamily=Courier New;fontSize=6;" parent="1" source="60" target="62" edge="1">
                    <mxGeometry relative="1" as="geometry"/>
                </mxCell>
                <mxCell id="85" style="edgeStyle=orthogonalEdgeStyle;html=1;exitX=0.5;exitY=1;exitDx=0;exitDy=0;entryX=1;entryY=0.5;entryDx=0;entryDy=0;fontFamily=Courier New;fontSize=12;" parent="1" source="60" target="84" edge="1">
                    <mxGeometry relative="1" as="geometry"/>
                </mxCell>
                <mxCell id="60" value="&lt;font face=&quot;Helvetica&quot;&gt;&lt;span style=&quot;font-size: 12px;&quot;&gt;OUTPUT_1_a&lt;/span&gt;&lt;/font&gt;" style="ellipse;whiteSpace=wrap;html=1;fontFamily=Courier New;fontSize=6;" parent="1" vertex="1">
                    <mxGeometry x="620" y="520" width="120" height="80" as="geometry"/>
                </mxCell>
                <mxCell id="64" style="edgeStyle=orthogonalEdgeStyle;html=1;exitX=0.5;exitY=0;exitDx=0;exitDy=0;entryX=1;entryY=0.5;entryDx=0;entryDy=0;fontFamily=Courier New;fontSize=6;" parent="1" source="62" target="9" edge="1">
                    <mxGeometry relative="1" as="geometry"/>
                </mxCell>
                <mxCell id="62" value="&lt;span style=&quot;color: rgb(240, 240, 240); font-family: &amp;quot;Courier New&amp;quot;; font-size: 12px; font-style: normal; font-variant-ligatures: normal; font-variant-caps: normal; font-weight: 400; letter-spacing: normal; orphans: 2; text-align: center; text-indent: 0px; text-transform: none; widows: 2; word-spacing: 0px; -webkit-text-stroke-width: 0px; background-color: rgb(42, 37, 47); text-decoration-thickness: initial; text-decoration-style: initial; text-decoration-color: initial; float: none; display: inline !important;&quot;&gt;send[6]&lt;/span&gt;" style="rhombus;whiteSpace=wrap;html=1;fontFamily=Courier New;fontSize=6;" parent="1" vertex="1">
                    <mxGeometry x="740" y="250" width="80" height="80" as="geometry"/>
                </mxCell>
                <mxCell id="68" style="edgeStyle=orthogonalEdgeStyle;html=1;exitX=0.5;exitY=1;exitDx=0;exitDy=0;entryX=1;entryY=0.25;entryDx=0;entryDy=0;fontFamily=Courier New;fontSize=6;" parent="1" source="65" target="50" edge="1">
                    <mxGeometry relative="1" as="geometry"/>
                </mxCell>
                <mxCell id="65" value="&lt;span style=&quot;color: rgb(240, 240, 240); font-family: &amp;quot;Courier New&amp;quot;; font-size: 12px; font-style: normal; font-variant-ligatures: normal; font-variant-caps: normal; font-weight: 400; letter-spacing: normal; orphans: 2; text-align: center; text-indent: 0px; text-transform: none; widows: 2; word-spacing: 0px; -webkit-text-stroke-width: 0px; background-color: rgb(42, 37, 47); text-decoration-thickness: initial; text-decoration-style: initial; text-decoration-color: initial; float: none; display: inline !important;&quot;&gt;send[5]&lt;/span&gt;" style="rhombus;whiteSpace=wrap;html=1;fontFamily=Courier New;fontSize=6;" parent="1" vertex="1">
                    <mxGeometry x="640" y="250" width="80" height="80" as="geometry"/>
                </mxCell>
                <mxCell id="72" style="edgeStyle=orthogonalEdgeStyle;html=1;exitX=0.5;exitY=1;exitDx=0;exitDy=0;entryX=1;entryY=0.25;entryDx=0;entryDy=0;fontFamily=Courier New;fontSize=6;" parent="1" source="69" target="9" edge="1">
                    <mxGeometry relative="1" as="geometry"/>
                </mxCell>
                <mxCell id="69" value="&lt;span style=&quot;color: rgb(240, 240, 240); font-family: &amp;quot;Courier New&amp;quot;; font-size: 12px; font-style: normal; font-variant-ligatures: normal; font-variant-caps: normal; font-weight: 400; letter-spacing: normal; orphans: 2; text-align: center; text-indent: 0px; text-transform: none; widows: 2; word-spacing: 0px; -webkit-text-stroke-width: 0px; background-color: rgb(42, 37, 47); text-decoration-thickness: initial; text-decoration-style: initial; text-decoration-color: initial; float: none; display: inline !important;&quot;&gt;send[1]&lt;/span&gt;" style="rhombus;whiteSpace=wrap;html=1;fontFamily=Courier New;fontSize=6;" parent="1" vertex="1">
                    <mxGeometry x="640" y="80" width="80" height="80" as="geometry"/>
                </mxCell>
                <mxCell id="74" style="edgeStyle=orthogonalEdgeStyle;html=1;exitX=0.5;exitY=1;exitDx=0;exitDy=0;entryX=0;entryY=0.25;entryDx=0;entryDy=0;fontFamily=Courier New;fontSize=6;" parent="1" source="70" target="9" edge="1">
                    <mxGeometry relative="1" as="geometry"/>
                </mxCell>
                <mxCell id="70" value="&lt;font style=&quot;font-size: 12px;&quot;&gt;send[0]&lt;/font&gt;" style="rhombus;whiteSpace=wrap;html=1;fontFamily=Courier New;fontSize=6;" parent="1" vertex="1">
                    <mxGeometry x="440" y="80" width="80" height="80" as="geometry"/>
                </mxCell>
                <mxCell id="83" style="edgeStyle=orthogonalEdgeStyle;html=1;exitX=0;exitY=0.5;exitDx=0;exitDy=0;entryX=1;entryY=0.5;entryDx=0;entryDy=0;fontFamily=Courier New;fontSize=12;" parent="1" source="78" target="18" edge="1">
                    <mxGeometry relative="1" as="geometry"/>
                </mxCell>
                <mxCell id="78" value="&lt;span style=&quot;color: rgb(240, 240, 240); font-family: &amp;quot;Courier New&amp;quot;; font-size: 12px; font-style: normal; font-variant-ligatures: normal; font-variant-caps: normal; font-weight: 400; letter-spacing: normal; orphans: 2; text-align: center; text-indent: 0px; text-transform: none; widows: 2; word-spacing: 0px; -webkit-text-stroke-width: 0px; background-color: rgb(42, 37, 47); text-decoration-thickness: initial; text-decoration-style: initial; text-decoration-color: initial; float: none; display: inline !important;&quot;&gt;send[3]&lt;/span&gt;" style="rhombus;whiteSpace=wrap;html=1;fontFamily=Courier New;fontSize=8;align=center;" parent="1" vertex="1">
                    <mxGeometry x="310" y="250" width="80" height="80" as="geometry"/>
                </mxCell>
                <mxCell id="82" style="edgeStyle=orthogonalEdgeStyle;html=1;exitX=0;exitY=0.5;exitDx=0;exitDy=0;entryX=1;entryY=0.5;entryDx=0;entryDy=0;fontFamily=Courier New;fontSize=12;" parent="1" source="79" target="17" edge="1">
                    <mxGeometry relative="1" as="geometry"/>
                </mxCell>
                <mxCell id="79" value="&lt;span style=&quot;color: rgb(240, 240, 240); font-family: &amp;quot;Courier New&amp;quot;; font-size: 12px; font-style: normal; font-variant-ligatures: normal; font-variant-caps: normal; font-weight: 400; letter-spacing: normal; orphans: 2; text-align: center; text-indent: 0px; text-transform: none; widows: 2; word-spacing: 0px; -webkit-text-stroke-width: 0px; background-color: rgb(42, 37, 47); text-decoration-thickness: initial; text-decoration-style: initial; text-decoration-color: initial; float: none; display: inline !important;&quot;&gt;send[2]&lt;/span&gt;" style="rhombus;whiteSpace=wrap;html=1;fontFamily=Courier New;fontSize=8;align=center;" parent="1" vertex="1">
                    <mxGeometry x="310" y="160" width="80" height="80" as="geometry"/>
                </mxCell>
                <mxCell id="86" style="edgeStyle=orthogonalEdgeStyle;html=1;exitX=0;exitY=0.5;exitDx=0;exitDy=0;entryX=1;entryY=0.5;entryDx=0;entryDy=0;fontFamily=Courier New;fontSize=12;" parent="1" source="84" target="16" edge="1">
                    <mxGeometry relative="1" as="geometry"/>
                </mxCell>
                <mxCell id="84" value="&lt;span style=&quot;color: rgb(240, 240, 240); font-family: &amp;quot;Courier New&amp;quot;; font-size: 12px; font-style: normal; font-variant-ligatures: normal; font-variant-caps: normal; font-weight: 400; letter-spacing: normal; orphans: 2; text-align: center; text-indent: 0px; text-transform: none; widows: 2; word-spacing: 0px; -webkit-text-stroke-width: 0px; background-color: rgb(42, 37, 47); text-decoration-thickness: initial; text-decoration-style: initial; text-decoration-color: initial; float: none; display: inline !important;&quot;&gt;send[10]&lt;/span&gt;" style="rhombus;whiteSpace=wrap;html=1;fontFamily=Courier New;fontSize=8;align=center;" parent="1" vertex="1">
                    <mxGeometry x="540" y="600" width="80" height="80" as="geometry"/>
                </mxCell>
            </root>
        </mxGraphModel>
    </diagram>
</mxfile>